<svg width="25" height="24" viewBox="0 0 25 24" fill="none" xmlns="http://www.w3.org/2000/svg">
<g filter="url(#filter0_bii_600_6976)">
<path d="M23.4409 8.35734L19.9722 18.982C19.9373 19.0891 19.8787 19.187 19.8009 19.2683C19.723 19.3497 19.6278 19.4125 19.5223 19.452C19.4169 19.4916 19.3039 19.5068 19.1917 19.4967C19.0795 19.4866 18.9711 19.4514 18.8744 19.3936C18.8528 19.3805 16.4556 17.9995 12.2481 17.9995C8.04062 17.9995 5.64343 19.3805 5.62 19.3945C5.52335 19.4517 5.41508 19.4865 5.30319 19.4963C5.19129 19.5061 5.07864 19.4906 4.97353 19.451C4.86842 19.4114 4.77355 19.3487 4.69592 19.2675C4.61828 19.1864 4.55987 19.0888 4.525 18.982L1.05812 8.35453C0.988269 8.14178 0.982886 7.91313 1.04265 7.69734C1.10241 7.48155 1.22466 7.28824 1.394 7.14174C1.56334 6.99525 1.77223 6.9021 1.99438 6.87401C2.21653 6.84593 2.44202 6.88416 2.6425 6.9839L7.34781 9.32765L11.2778 2.79703C11.3788 2.62952 11.5214 2.49096 11.6918 2.39477C11.8621 2.29859 12.0544 2.24805 12.25 2.24805C12.4456 2.24805 12.6379 2.29859 12.8082 2.39477C12.9786 2.49096 13.1212 2.62952 13.2222 2.79703L17.1522 9.32765L21.8594 6.9839C22.0601 6.88401 22.2859 6.84583 22.5083 6.87419C22.7307 6.90254 22.9397 6.99615 23.1089 7.14321C23.2781 7.29026 23.4 7.48416 23.4591 7.70042C23.5182 7.91668 23.5118 8.1456 23.4409 8.35828V8.35734Z" fill="#FF6855"/>
<path d="M22.9666 8.20012L22.9792 8.20432L22.9656 8.20216L19.4969 18.8268L19.4968 18.8272C19.4851 18.8629 19.4656 18.8955 19.4397 18.9226C19.4137 18.9497 19.382 18.9707 19.3468 18.9839C19.3117 18.997 19.274 19.0021 19.2366 18.9987C19.1992 18.9954 19.1631 18.9836 19.1308 18.9644C18.9963 18.8848 16.5175 17.4995 12.2481 17.4995C7.96695 17.4995 5.48727 18.8925 5.36529 18.9643C5.33306 18.9833 5.29697 18.9949 5.25967 18.9982C5.22238 19.0015 5.18483 18.9963 5.14979 18.9831C5.11476 18.9699 5.08313 18.949 5.05725 18.9219C5.03138 18.8949 5.01191 18.8624 5.00028 18.8268L1.53347 8.19946L1.53317 8.19855C1.49408 8.0795 1.49107 7.95155 1.52451 7.83079C1.55796 7.71003 1.62636 7.60186 1.72112 7.51988L1.39571 7.14372L1.72113 7.51988C1.81589 7.4379 1.93278 7.38578 2.05709 7.37006C2.18141 7.35435 2.30759 7.37574 2.41977 7.43156L7.12488 9.7752L7.53816 9.98106L7.77622 9.58546L11.706 3.05525C11.7625 2.96152 11.8423 2.88398 11.9376 2.83015C12.0329 2.77633 12.1405 2.74805 12.25 2.74805C12.3595 2.74805 12.4671 2.77633 12.5624 2.83015C12.6577 2.88398 12.7375 2.96152 12.794 3.05525L16.7238 9.58546L16.9618 9.981L17.375 9.77524L22.0822 7.43153C22.0822 7.43151 22.0822 7.4315 22.0822 7.43149C22.1944 7.37566 22.3207 7.35432 22.445 7.37017C22.5694 7.38603 22.6863 7.43838 22.7809 7.52062C22.8755 7.60285 22.9437 7.71129 22.9767 7.83222C23.0098 7.95316 23.0063 8.08118 22.9666 8.20012Z" stroke="url(#paint0_linear_600_6976)"/>
</g>
<defs>
<filter id="filter0_bii_600_6976" x="-6.09854" y="-4.85195" width="36.6978" height="31.452" filterUnits="userSpaceOnUse" color-interpolation-filters="sRGB">
<feFlood flood-opacity="0" result="BackgroundImageFix"/>
<feGaussianBlur in="BackgroundImageFix" stdDeviation="3.55"/>
<feComposite in2="SourceAlpha" operator="in" result="effect1_backgroundBlur_600_6976"/>
<feBlend mode="normal" in="SourceGraphic" in2="effect1_backgroundBlur_600_6976" result="shape"/>
<feColorMatrix in="SourceAlpha" type="matrix" values="0 0 0 0 0 0 0 0 0 0 0 0 0 0 0 0 0 0 127 0" result="hardAlpha"/>
<feOffset dx="-2.29167" dy="2.29167"/>
<feGaussianBlur stdDeviation="1.14583"/>
<feComposite in2="hardAlpha" operator="arithmetic" k2="-1" k3="1"/>
<feColorMatrix type="matrix" values="0 0 0 0 1 0 0 0 0 1 0 0 0 0 1 0 0 0 0.3 0"/>
<feBlend mode="normal" in2="shape" result="effect2_innerShadow_600_6976"/>
<feColorMatrix in="SourceAlpha" type="matrix" values="0 0 0 0 0 0 0 0 0 0 0 0 0 0 0 0 0 0 127 0" result="hardAlpha"/>
<feOffset dy="-1"/>
<feGaussianBlur stdDeviation="1.15"/>
<feComposite in2="hardAlpha" operator="arithmetic" k2="-1" k3="1"/>
<feColorMatrix type="matrix" values="0 0 0 0 1 0 0 0 0 1 0 0 0 0 1 0 0 0 0.2 0"/>
<feBlend mode="normal" in2="effect2_innerShadow_600_6976" result="effect3_innerShadow_600_6976"/>
</filter>
<linearGradient id="paint0_linear_600_6976" x1="12.2503" y1="2.24805" x2="12.2503" y2="19.4998" gradientUnits="userSpaceOnUse">
<stop stop-color="white"/>
<stop offset="0.700339" stop-color="white" stop-opacity="0"/>
</linearGradient>
</defs>
</svg>
