<svg width="60" height="60" viewBox="0 0 60 60" fill="none" xmlns="http://www.w3.org/2000/svg">
<path d="M51.7188 24.0016C51.5296 23.4183 51.1729 22.9037 50.6933 22.5216C50.2137 22.1396 49.6323 21.9071 49.0215 21.8531L37.4219 20.8531L32.875 10.0406C32.6383 9.47327 32.239 8.98865 31.7274 8.64777C31.2158 8.30689 30.6148 8.125 30 8.125C29.3853 8.125 28.7843 8.30689 28.2727 8.64777C27.7611 8.98865 27.3618 9.47327 27.125 10.0406L22.5918 20.8531L10.9786 21.859C10.3653 21.9105 9.781 22.1419 9.29879 22.5243C8.81658 22.9066 8.45798 23.4227 8.26796 24.008C8.07793 24.5933 8.06495 25.2217 8.23062 25.8143C8.3963 26.407 8.73326 26.9375 9.19926 27.3395L18.0098 35.0387L15.3692 46.4723C15.2296 47.0706 15.2694 47.6968 15.4837 48.2726C15.6981 48.8484 16.0774 49.3483 16.5743 49.7097C17.0711 50.0711 17.6635 50.278 18.2773 50.3045C18.8912 50.3311 19.4992 50.1761 20.0254 49.859L29.9864 43.8043L39.9688 49.859C40.495 50.1761 41.1031 50.3311 41.7169 50.3045C42.3307 50.278 42.9231 50.0711 43.42 49.7097C43.9168 49.3483 44.2962 48.8484 44.5105 48.2726C44.7248 47.6968 44.7647 47.0706 44.625 46.4723L41.9864 35.027L50.795 27.3395C51.2609 26.9362 51.5972 26.4041 51.7616 25.8102C51.926 25.2163 51.9111 24.587 51.7188 24.0016ZM48.7461 24.9781L39.9375 32.6656C39.5088 33.0385 39.1899 33.5213 39.0151 34.0619C38.8403 34.6026 38.8162 35.1807 38.9454 35.734L41.5918 47.1871L31.6172 41.1324C31.1306 40.8361 30.5718 40.6793 30.002 40.6793C29.4322 40.6793 28.8734 40.8361 28.3868 41.1324L18.4258 47.1871L21.0547 35.7418C21.1839 35.1885 21.1598 34.6104 20.985 34.0697C20.8102 33.5291 20.4913 33.0464 20.0625 32.6734L11.25 24.9898C11.2493 24.984 11.2493 24.9781 11.25 24.9723L22.8594 23.9684C23.4262 23.9184 23.9686 23.7146 24.4281 23.379C24.8876 23.0435 25.2468 22.5888 25.4668 22.0641L30 11.2652L34.5313 22.0641C34.7514 22.5888 35.1105 23.0435 35.57 23.379C36.0295 23.7146 36.5719 23.9184 37.1387 23.9684L48.75 24.9723V24.9859L48.7461 24.9781Z" fill="#535353"/>
</svg>
