<svg width="60" height="60" viewBox="0 0 60 60" fill="none" xmlns="http://www.w3.org/2000/svg">
<path d="M39.5752 50.3126C39.5752 50.727 39.4106 51.1244 39.1176 51.4175C38.8245 51.7105 38.4271 51.8751 38.0127 51.8751H22.3877C21.9733 51.8751 21.5759 51.7105 21.2829 51.4175C20.9898 51.1244 20.8252 50.727 20.8252 50.3126C20.8252 49.8982 20.9898 49.5008 21.2829 49.2078C21.5759 48.9147 21.9733 48.7501 22.3877 48.7501H38.0127C38.4271 48.7501 38.8245 48.9147 39.1176 49.2078C39.4106 49.5008 39.5752 49.8982 39.5752 50.3126ZM47.3877 25.3126C47.3944 27.9174 46.806 30.4893 45.6673 32.832C44.5286 35.1747 42.8698 37.2263 40.8174 38.8302C40.4336 39.1243 40.1222 39.5023 39.9069 39.9353C39.6916 40.3683 39.5782 40.8447 39.5752 41.3282V42.5001C39.5752 43.3289 39.246 44.1238 38.6599 44.7098C38.0739 45.2959 37.279 45.6251 36.4502 45.6251H23.9502C23.1214 45.6251 22.3265 45.2959 21.7405 44.7098C21.1544 44.1238 20.8252 43.3289 20.8252 42.5001V41.3282C20.8249 40.8505 20.715 40.3792 20.5041 39.9505C20.2932 39.5219 19.9867 39.1473 19.6084 38.8556C17.5614 37.2613 15.9038 35.2224 14.7611 32.893C13.6184 30.5636 13.0205 28.0048 13.0127 25.4103C12.9619 16.0997 20.4854 8.34972 29.7861 8.12511C32.0778 8.06988 34.3574 8.47365 36.4907 9.31264C38.6241 10.1516 40.568 11.4089 42.2081 13.0104C43.8482 14.612 45.1514 16.5254 46.0409 18.6382C46.9305 20.7509 47.3884 23.0202 47.3877 25.3126ZM44.2627 25.3126C44.2633 23.4369 43.8886 21.5801 43.1607 19.8514C42.4328 18.1228 41.3665 16.5572 40.0245 15.2468C38.6824 13.9364 37.0918 12.9078 35.3463 12.2214C33.6007 11.535 31.7355 11.2048 29.8604 11.2501C22.2432 11.4298 16.0967 17.7716 16.1377 25.3888C16.1447 27.511 16.6344 29.6039 17.5696 31.509C18.5049 33.4141 19.8613 35.0814 21.5361 36.3849C22.289 36.9701 22.8979 37.7198 23.3163 38.5767C23.7347 39.4335 23.9516 40.3747 23.9502 41.3282V42.5001H28.6377V33.7716L22.8447 27.9806C22.5515 27.6874 22.3868 27.2897 22.3868 26.8751C22.3868 26.4605 22.5515 26.0628 22.8447 25.7696C23.1379 25.4764 23.5356 25.3117 23.9502 25.3117C24.3648 25.3117 24.7625 25.4764 25.0557 25.7696L30.2002 30.9161L35.3447 25.7696C35.4899 25.6245 35.6623 25.5093 35.8519 25.4307C36.0416 25.3522 36.2449 25.3117 36.4502 25.3117C36.6555 25.3117 36.8588 25.3522 37.0485 25.4307C37.2382 25.5093 37.4105 25.6245 37.5557 25.7696C37.7008 25.9148 37.816 26.0872 37.8946 26.2768C37.9731 26.4665 38.0136 26.6698 38.0136 26.8751C38.0136 27.0804 37.9731 27.2837 37.8946 27.4734C37.816 27.6631 37.7008 27.8354 37.5557 27.9806L31.7627 33.7716V42.5001H36.4502V41.3282C36.4519 40.3719 36.6723 39.4286 37.0944 38.5705C37.5165 37.7124 38.1293 36.9621 38.8858 36.3771C40.5656 35.0642 41.9233 33.3849 42.8552 31.4673C43.7871 29.5498 44.2685 27.4446 44.2627 25.3126Z" fill="#535353"/>
</svg>
