<svg width="60" height="60" viewBox="0 0 60 60" fill="none" xmlns="http://www.w3.org/2000/svg">
<path d="M52.6124 34.3753C52.4483 34.4984 52.2615 34.588 52.0627 34.6389C51.8639 34.6898 51.6571 34.7011 51.4539 34.6721C51.2508 34.643 51.0554 34.5743 50.8788 34.4698C50.7023 34.3652 50.548 34.2269 50.4249 34.0628C49.4831 32.7969 48.2573 31.7698 46.8461 31.0642C45.4349 30.3586 43.8777 29.9941 42.2999 30.0003C41.9926 30.0002 41.6922 29.9096 41.4362 29.7397C41.1802 29.5699 40.9799 29.3283 40.8605 29.0452C40.7793 28.853 40.7376 28.6464 40.7376 28.4378C40.7376 28.2291 40.7793 28.0226 40.8605 27.8303C40.9799 27.5473 41.1802 27.3057 41.4362 27.1358C41.6922 26.9659 41.9926 26.8753 42.2999 26.8753C43.1766 26.8752 44.0357 26.6293 44.7797 26.1654C45.5236 25.7015 46.1225 25.0383 46.5084 24.2511C46.8944 23.4639 47.0518 22.5843 46.9628 21.7121C46.8738 20.8399 46.5421 20.0102 46.0052 19.3171C45.4683 18.624 44.7478 18.0954 43.9255 17.7913C43.1032 17.4872 42.2122 17.4198 41.3535 17.5967C40.4948 17.7737 39.703 18.1878 39.0679 18.7922C38.4329 19.3966 37.98 20.167 37.7608 21.0159C37.7095 21.2147 37.6196 21.4014 37.4961 21.5654C37.3727 21.7294 37.2181 21.8675 37.0413 21.9718C36.8645 22.0761 36.6688 22.1445 36.4655 22.1732C36.2623 22.2019 36.0553 22.1902 35.8565 22.1389C35.6578 22.0876 35.471 21.9977 35.307 21.8742C35.143 21.7508 35.0049 21.5962 34.9006 21.4194C34.7963 21.2426 34.7279 21.0469 34.6992 20.8436C34.6706 20.6404 34.6822 20.4334 34.7335 20.2346C35.0377 19.0575 35.6125 17.9676 36.412 17.0517C37.2115 16.1358 38.2138 15.4192 39.3391 14.9588C40.4643 14.4984 41.6815 14.307 42.8937 14.3997C44.106 14.4925 45.2799 14.867 46.3219 15.4933C47.364 16.1195 48.2455 16.9804 48.8964 18.0073C49.5472 19.0343 49.9494 20.1989 50.0709 21.4086C50.1924 22.6183 50.0299 23.8397 49.5963 24.9756C49.1627 26.1114 48.47 27.1304 47.5733 27.9514C49.698 28.8714 51.5449 30.3312 52.9308 32.1858C53.0539 32.3504 53.1433 32.5376 53.1939 32.7368C53.2446 32.936 53.2554 33.1432 53.2258 33.3466C53.1963 33.55 53.1269 33.7455 53.0216 33.922C52.9163 34.0986 52.7773 34.2526 52.6124 34.3753ZM42.089 46.4065C42.202 46.5844 42.2779 46.7832 42.3121 46.9912C42.3463 47.1991 42.3381 47.4118 42.288 47.6165C42.2379 47.8212 42.1468 48.0136 42.0204 48.1822C41.894 48.3508 41.7347 48.4921 41.5523 48.5975C41.3699 48.703 41.168 48.7704 40.9588 48.7959C40.7496 48.8213 40.5374 48.8041 40.335 48.7454C40.1326 48.6867 39.9442 48.5876 39.7811 48.4542C39.618 48.3208 39.4835 48.1557 39.3858 47.969C38.4016 46.3024 36.9997 44.9211 35.3187 43.9616C33.6377 43.0021 31.7355 42.4974 29.7999 42.4974C27.8643 42.4974 25.9621 43.0021 24.2811 43.9616C22.6001 44.9211 21.1983 46.3024 20.214 47.969C20.1163 48.1557 19.9819 48.3208 19.8187 48.4542C19.6556 48.5876 19.4672 48.6867 19.2648 48.7454C19.0624 48.8041 18.8502 48.8213 18.6411 48.7959C18.4319 48.7704 18.23 48.703 18.0475 48.5975C17.8651 48.4921 17.7058 48.3508 17.5794 48.1822C17.453 48.0136 17.362 47.8212 17.3118 47.6165C17.2617 47.4118 17.2535 47.1991 17.2877 46.9912C17.3219 46.7832 17.3978 46.5844 17.5108 46.4065C19.0257 43.8037 21.3354 41.7555 24.1007 40.5628C22.5447 39.3714 21.4011 37.7224 20.8308 35.8476C20.2604 33.9727 20.2919 31.9663 20.9208 30.1102C21.5498 28.2542 22.7445 26.6419 24.3372 25.5C25.9298 24.3581 27.8402 23.744 29.7999 23.744C31.7596 23.744 33.67 24.3581 35.2627 25.5C36.8553 26.6419 38.05 28.2542 38.679 30.1102C39.3079 31.9663 39.3394 33.9727 38.7691 35.8476C38.1987 37.7224 37.0551 39.3714 35.4991 40.5628C38.2644 41.7555 40.5741 43.8037 42.089 46.4065ZM29.7999 39.3753C31.036 39.3753 32.2444 39.0087 33.2722 38.322C34.3 37.6352 35.1011 36.6591 35.5742 35.517C36.0472 34.375 36.171 33.1183 35.9298 31.906C35.6887 30.6936 35.0934 29.5799 34.2193 28.7058C33.3452 27.8318 32.2316 27.2365 31.0192 26.9954C29.8068 26.7542 28.5502 26.878 27.4081 27.351C26.2661 27.8241 25.29 28.6251 24.6032 29.653C23.9165 30.6808 23.5499 31.8891 23.5499 33.1253C23.5499 34.7829 24.2084 36.3726 25.3805 37.5447C26.5526 38.7168 28.1423 39.3753 29.7999 39.3753ZM18.8624 28.4378C18.8624 28.0234 18.6978 27.6259 18.4048 27.3329C18.1117 27.0399 17.7143 26.8753 17.2999 26.8753C16.4232 26.8752 15.5641 26.6293 14.8202 26.1654C14.0762 25.7015 13.4773 25.0383 13.0914 24.2511C12.7055 23.4639 12.5481 22.5843 12.637 21.7121C12.726 20.8399 13.0578 20.0102 13.5947 19.3171C14.1315 18.624 14.8521 18.0954 15.6743 17.7913C16.4966 17.4872 17.3877 17.4198 18.2463 17.5967C19.105 17.7737 19.8968 18.1878 20.5319 18.7922C21.167 19.3966 21.6198 20.167 21.839 21.0159C21.9426 21.4173 22.2014 21.7612 22.5585 21.9718C22.9157 22.1824 23.3418 22.2425 23.7433 22.1389C24.1447 22.0353 24.4886 21.7765 24.6992 21.4194C24.9098 21.0623 24.9699 20.6361 24.8663 20.2346C24.5621 19.0575 23.9874 17.9676 23.1878 17.0517C22.3883 16.1358 21.386 15.4192 20.2608 14.9588C19.1355 14.4984 17.9183 14.307 16.7061 14.3997C15.4938 14.4925 14.32 14.867 13.2779 15.4933C12.2358 16.1195 11.3543 16.9804 10.7035 18.0073C10.0526 19.0343 9.65046 20.1989 9.52895 21.4086C9.40743 22.6183 9.56993 23.8397 10.0035 24.9756C10.4371 26.1114 11.1298 27.1304 12.0265 27.9514C9.90398 28.8722 8.05912 30.332 6.67491 32.1858C6.42601 32.5173 6.319 32.9342 6.37742 33.3446C6.43584 33.755 6.65491 34.1254 6.98643 34.3743C7.31795 34.6232 7.73477 34.7302 8.14519 34.6718C8.55561 34.6134 8.92601 34.3943 9.17491 34.0628C10.1167 32.7969 11.3425 31.7698 12.7537 31.0642C14.165 30.3586 15.7221 29.9941 17.2999 30.0003C17.7143 30.0003 18.1117 29.8356 18.4048 29.5426C18.6978 29.2496 18.8624 28.8522 18.8624 28.4378Z" fill="#535353"/>
</svg>
