<svg width="60" height="60" viewBox="0 0 60 60" fill="none" xmlns="http://www.w3.org/2000/svg">
<path d="M45.9297 11.25H15.0703C14.1897 11.25 13.3452 11.5998 12.7225 12.2225C12.0998 12.8452 11.75 13.6897 11.75 14.5703V24.1816C11.7508 24.8197 11.9355 25.444 12.2819 25.9798C12.6282 26.5157 13.1217 26.9404 13.7031 27.2031L25.9297 32.7598C24.1193 33.7728 22.6961 35.3577 21.883 37.2663C21.0699 39.1748 20.9127 41.2991 21.4362 43.3065C21.9597 45.3139 23.1342 47.091 24.7758 48.3594C26.4173 49.6278 28.4333 50.3159 30.5078 50.3159C32.5823 50.3159 34.5983 49.6278 36.2399 48.3594C37.8815 47.091 39.056 45.3139 39.5794 43.3065C40.1029 41.2991 39.9458 39.1748 39.1326 37.2663C38.3195 35.3577 36.8963 33.7728 35.0859 32.7598L47.2969 27.2031C47.8783 26.9404 48.3718 26.5157 48.7181 25.9798C49.0645 25.444 49.2492 24.8197 49.25 24.1816V14.5703C49.25 13.6897 48.9002 12.8452 48.2775 12.2225C47.6548 11.5998 46.8103 11.25 45.9297 11.25ZM36.75 14.375V28.5684L30.5 31.4082L24.25 28.5684V14.375H36.75ZM14.875 24.1816V14.5703C14.875 14.5185 14.8956 14.4688 14.9322 14.4322C14.9688 14.3956 15.0185 14.375 15.0703 14.375H21.125V27.1465L14.9902 24.3594C14.956 24.344 14.9269 24.319 14.9064 24.2875C14.886 24.256 14.8751 24.2192 14.875 24.1816ZM30.5 47.1875C29.2639 47.1875 28.0555 46.8209 27.0277 46.1342C25.9999 45.4474 25.1988 44.4713 24.7258 43.3293C24.2527 42.1872 24.1289 40.9306 24.3701 39.7182C24.6112 38.5058 25.2065 37.3922 26.0806 36.5181C26.9547 35.644 28.0683 35.0487 29.2807 34.8076C30.4931 34.5664 31.7497 34.6902 32.8918 35.1632C34.0338 35.6363 35.0099 36.4374 35.6967 37.4652C36.3834 38.493 36.75 39.7014 36.75 40.9375C36.75 42.5951 36.0915 44.1848 34.9194 45.3569C33.7473 46.529 32.1576 47.1875 30.5 47.1875ZM46.125 24.1816C46.1249 24.2192 46.114 24.256 46.0936 24.2875C46.0731 24.319 46.044 24.344 46.0098 24.3594L39.875 27.1465V14.375H45.9297C45.9815 14.375 46.0312 14.3956 46.0678 14.4322C46.1044 14.4688 46.125 14.5185 46.125 14.5703V24.1816Z" fill="#535353"/>
</svg>
