<svg width="40" height="41" viewBox="0 0 40 41" fill="none" xmlns="http://www.w3.org/2000/svg">
<rect x="0.5" y="1.10352" width="39" height="39" rx="19.5" stroke="#222222"/>
<path d="M20 10.8535C18.0716 10.8535 16.1866 11.4253 14.5832 12.4967C12.9798 13.568 11.7301 15.0908 10.9922 16.8724C10.2542 18.6539 10.0611 20.6143 10.4373 22.5056C10.8136 24.397 11.7422 26.1342 13.1057 27.4978C14.4693 28.8614 16.2066 29.79 18.0979 30.1662C19.9892 30.5424 21.9496 30.3493 23.7312 29.6113C25.5127 28.8734 27.0355 27.6237 28.1068 26.0203C29.1782 24.4169 29.75 22.5319 29.75 20.6035C29.7473 18.0185 28.7192 15.5401 26.8913 13.7122C25.0634 11.8844 22.585 10.8562 20 10.8535ZM17.5278 24.3535H22.4722C21.9688 26.0729 21.125 27.6226 20 28.8432C18.875 27.6226 18.0313 26.0729 17.5278 24.3535ZM17.1875 22.8535C16.9388 21.3638 16.9388 19.8432 17.1875 18.3535H22.8125C23.0613 19.8432 23.0613 21.3638 22.8125 22.8535H17.1875ZM11.75 20.6035C11.7494 19.8427 11.8544 19.0854 12.0622 18.3535H15.6678C15.4441 19.8452 15.4441 21.3619 15.6678 22.8535H12.0622C11.8544 22.1216 11.7494 21.3644 11.75 20.6035ZM22.4722 16.8535H17.5278C18.0313 15.1341 18.875 13.5845 20 12.3638C21.125 13.5845 21.9688 15.1341 22.4722 16.8535ZM24.3322 18.3535H27.9378C28.3541 19.8246 28.3541 21.3824 27.9378 22.8535H24.3322C24.5559 21.3619 24.5559 19.8452 24.3322 18.3535ZM27.3472 16.8535H24.0256C23.6429 15.3474 23.0001 13.9197 22.1263 12.6348C23.2427 12.9348 24.2839 13.4651 25.1831 14.1917C26.0823 14.9183 26.8194 15.825 27.3472 16.8535ZM17.8738 12.6348C16.9999 13.9197 16.3571 15.3474 15.9744 16.8535H12.6528C13.1806 15.825 13.9177 14.9183 14.8169 14.1917C15.7161 13.4651 16.7573 12.9348 17.8738 12.6348ZM12.6528 24.3535H15.9744C16.3571 25.8596 16.9999 27.2873 17.8738 28.5723C16.7573 28.2722 15.7161 27.7419 14.8169 27.0153C13.9177 26.2888 13.1806 25.3821 12.6528 24.3535ZM22.1263 28.5723C23.0001 27.2873 23.6429 25.8596 24.0256 24.3535H27.3472C26.8194 25.3821 26.0823 26.2888 25.1831 27.0153C24.2839 27.7419 23.2427 28.2722 22.1263 28.5723Z" fill="#343330"/>
</svg>
