<svg width="40" height="41" viewBox="0 0 40 41" fill="none" xmlns="http://www.w3.org/2000/svg">
<rect x="0.5" y="1.10352" width="39" height="39" rx="19.5" stroke="#222222"/>
<path d="M30.8103 21.3535L21.5 12.0432C21.3612 11.9033 21.196 11.7924 21.014 11.7169C20.832 11.6414 20.6368 11.6029 20.4397 11.6035H11.75C11.5511 11.6035 11.3603 11.6825 11.2197 11.8232C11.079 11.9638 11 12.1546 11 12.3535V21.0432C10.9994 21.2403 11.0379 21.4355 11.1134 21.6175C11.1889 21.7995 11.2998 21.9647 11.4397 22.1035L20.75 31.4138C20.8893 31.5532 21.0547 31.6637 21.2367 31.7391C21.4187 31.8145 21.6138 31.8533 21.8108 31.8533C22.0078 31.8533 22.2029 31.8145 22.3849 31.7391C22.5669 31.6637 22.7323 31.5532 22.8716 31.4138L30.8103 23.4751C30.9496 23.3358 31.0602 23.1704 31.1356 22.9884C31.211 22.8064 31.2498 22.6113 31.2498 22.4143C31.2498 22.2173 31.211 22.0222 31.1356 21.8402C31.0602 21.6582 30.9496 21.4928 30.8103 21.3535ZM21.8103 30.3535L12.5 21.0432V13.1035H20.4397L29.75 22.4138L21.8103 30.3535ZM17 16.4785C17 16.701 16.934 16.9185 16.8104 17.1035C16.6868 17.2885 16.5111 17.4327 16.3055 17.5179C16.1 17.603 15.8738 17.6253 15.6555 17.5819C15.4373 17.5385 15.2368 17.4314 15.0795 17.274C14.9222 17.1167 14.815 16.9162 14.7716 16.698C14.7282 16.4798 14.7505 16.2536 14.8356 16.048C14.9208 15.8424 15.065 15.6667 15.25 15.5431C15.435 15.4195 15.6525 15.3535 15.875 15.3535C16.1734 15.3535 16.4595 15.472 16.6705 15.683C16.8815 15.894 17 16.1802 17 16.4785Z" fill="#343330"/>
</svg>
