<svg width="40" height="41" viewBox="0 0 40 41" fill="none" xmlns="http://www.w3.org/2000/svg">
<rect x="0.5" y="1.10352" width="39" height="39" rx="19.5" stroke="#222222"/>
<path d="M30.86 15.7459C30.6908 15.5984 30.4816 15.5045 30.2589 15.4761C30.0362 15.4478 29.8102 15.4862 29.6094 15.5866L24.9022 17.9303L20.9722 11.4025C20.8712 11.235 20.7286 11.0964 20.5582 11.0002C20.3879 10.9041 20.1956 10.8535 20 10.8535C19.8044 10.8535 19.6121 10.9041 19.4418 11.0002C19.2714 11.0964 19.1288 11.235 19.0278 11.4025L15.0978 17.9331L10.3925 15.5894C10.1922 15.4899 9.96697 15.4518 9.74509 15.4798C9.52321 15.5079 9.31455 15.6009 9.14531 15.7471C8.97608 15.8933 8.85379 16.0862 8.7938 16.3017C8.73381 16.5171 8.73879 16.7455 8.80812 16.9581L12.2769 27.5856C12.3117 27.6924 12.3702 27.79 12.4478 27.8711C12.5254 27.9523 12.6203 28.015 12.7254 28.0546C12.8305 28.0942 12.9432 28.1097 13.0551 28.0999C13.167 28.0901 13.2752 28.0553 13.3719 27.9981C13.3953 27.9841 15.7925 26.6031 20 26.6031C24.2075 26.6031 26.6047 27.9841 26.6262 27.9972C26.7229 28.055 26.8314 28.0902 26.9436 28.1003C27.0557 28.1104 27.1687 28.0952 27.2742 28.0556C27.3797 28.0161 27.4749 27.9533 27.5527 27.8719C27.6306 27.7906 27.6892 27.6927 27.7241 27.5856L31.1928 16.9609C31.2641 16.7482 31.2706 16.5191 31.2113 16.3028C31.152 16.0864 31.0297 15.8926 30.86 15.7459ZM26.5625 26.3059C25.4375 25.8287 23.195 25.1031 20 25.1031C16.805 25.1031 14.5625 25.8287 13.4375 26.3059L10.5041 17.3219L14.7294 19.4284C14.9851 19.5546 15.2788 19.5803 15.5527 19.5007C15.8265 19.421 16.0605 19.2417 16.2087 18.9981L20 12.6962L23.7912 18.9962C23.9396 19.2395 24.1735 19.4185 24.447 19.4981C24.7206 19.5777 25.014 19.5522 25.2697 19.4266L29.4959 17.3219L26.5625 26.3059ZM24.4878 23.3059C24.4572 23.4794 24.3665 23.6366 24.2316 23.7499C24.0967 23.8632 23.9262 23.9254 23.75 23.9256C23.706 23.9256 23.6621 23.9218 23.6187 23.9144C21.2231 23.5031 18.775 23.5031 16.3794 23.9144C16.1834 23.9489 15.9818 23.9042 15.8188 23.7901C15.6558 23.676 15.5449 23.5019 15.5103 23.3059C15.4757 23.11 15.5204 22.9084 15.6345 22.7454C15.7486 22.5824 15.9228 22.4714 16.1187 22.4369C18.6868 21.9956 21.3113 21.9956 23.8794 22.4369C24.0749 22.4712 24.2489 22.5817 24.3631 22.744C24.4773 22.9064 24.5225 23.1075 24.4887 23.3031L24.4878 23.3059Z" fill="#343330"/>
</svg>
