<svg width="40" height="41" viewBox="0 0 40 41" fill="none" xmlns="http://www.w3.org/2000/svg">
<rect x="0.5" y="1.10352" width="39" height="39" rx="19.5" stroke="#222222"/>
<path d="M30.4251 17.7243C30.3342 17.4443 30.1631 17.1973 29.9328 17.0139C29.7026 16.8305 29.4236 16.7189 29.1304 16.693L23.5626 16.213L21.3801 11.023C21.2664 10.7507 21.0748 10.5181 20.8292 10.3544C20.5836 10.1908 20.2952 10.1035 20.0001 10.1035C19.705 10.1035 19.4165 10.1908 19.1709 10.3544C18.9254 10.5181 18.7337 10.7507 18.6201 11.023L16.4441 16.213L10.8698 16.6958C10.5754 16.7206 10.2949 16.8316 10.0635 17.0152C9.83201 17.1987 9.65988 17.4464 9.56867 17.7274C9.47746 18.0083 9.47122 18.3099 9.55075 18.5944C9.63027 18.8789 9.79202 19.1335 10.0157 19.3265L14.2448 23.0221L12.9773 28.5102C12.9102 28.7974 12.9294 29.098 13.0322 29.3744C13.1351 29.6508 13.3172 29.8907 13.5557 30.0642C13.7942 30.2376 14.0785 30.3369 14.3732 30.3497C14.6678 30.3624 14.9597 30.2881 15.2123 30.1358L19.9935 27.2296L24.7851 30.1358C25.0377 30.2881 25.3295 30.3624 25.6242 30.3497C25.9188 30.3369 26.2031 30.2376 26.4416 30.0642C26.6801 29.8907 26.8622 29.6508 26.9651 29.3744C27.068 29.098 27.0871 28.7974 27.0201 28.5102L25.7535 23.0165L29.9816 19.3265C30.2053 19.1329 30.3667 18.8775 30.4456 18.5924C30.5245 18.3073 30.5174 18.0053 30.4251 17.7243ZM28.9982 18.193L24.7701 21.883C24.5643 22.062 24.4112 22.2937 24.3273 22.5532C24.2434 22.8128 24.2318 23.0902 24.2938 23.3558L25.5641 28.8533L20.7763 25.9471C20.5427 25.8048 20.2745 25.7296 20.001 25.7296C19.7275 25.7296 19.4593 25.8048 19.2257 25.9471L14.4444 28.8533L15.7063 23.3596C15.7683 23.094 15.7568 22.8165 15.6728 22.557C15.5889 22.2975 15.4359 22.0658 15.2301 21.8868L11.0001 18.1986C10.9997 18.1958 10.9997 18.193 11.0001 18.1902L16.5726 17.7083C16.8446 17.6843 17.105 17.5865 17.3255 17.4255C17.5461 17.2644 17.7185 17.0461 17.8241 16.7943L20.0001 11.6108L22.1751 16.7943C22.2807 17.0461 22.4531 17.2644 22.6737 17.4255C22.8942 17.5865 23.1546 17.6843 23.4266 17.7083L29.0001 18.1902C29.0001 18.1902 29.0001 18.1958 29.0001 18.1968L28.9982 18.193Z" fill="#343330"/>
</svg>
