<svg width="40" height="41" viewBox="0 0 40 41" fill="none" xmlns="http://www.w3.org/2000/svg">
<rect x="0.5" y="1.10352" width="39" height="39" rx="19.5" stroke="#222222"/>
<path d="M20.8944 26.0748C21.035 26.2154 21.1139 26.4061 21.1139 26.6049C21.1139 26.8038 21.035 26.9945 20.8944 27.1351L19.9625 28.0726C18.9771 29.0575 17.6407 29.6105 16.2474 29.6101C14.8542 29.6096 13.5182 29.0557 12.5333 28.0702C11.5485 27.0848 10.9954 25.7484 10.9958 24.3552C10.9963 22.9619 11.5502 21.6259 12.5357 20.641L14.7969 18.3798C15.7435 17.4324 17.0163 16.8827 18.3549 16.8429C19.6935 16.8032 20.9967 17.2765 21.9979 18.166C22.0717 18.2315 22.132 18.3109 22.1751 18.3997C22.2183 18.4885 22.2436 18.5849 22.2495 18.6834C22.2554 18.782 22.2419 18.8807 22.2096 18.9741C22.1774 19.0674 22.1271 19.1534 22.0616 19.2273C21.9961 19.3011 21.9167 19.3614 21.8279 19.4046C21.7391 19.4478 21.6427 19.473 21.5442 19.4789C21.4456 19.4849 21.3469 19.4713 21.2536 19.4391C21.1603 19.4068 21.0742 19.3565 21.0004 19.291C20.2853 18.6561 19.3548 18.3182 18.3989 18.3466C17.4431 18.3751 16.5342 18.7675 15.8582 19.4438L13.5969 21.7023C12.8935 22.4057 12.4983 23.3597 12.4983 24.3545C12.4983 25.3492 12.8935 26.3032 13.5969 27.0067C14.3003 27.7101 15.2543 28.1052 16.2491 28.1052C17.2439 28.1052 18.1979 27.7101 18.9013 27.0067L19.8332 26.0748C19.9028 26.005 19.9855 25.9497 20.0766 25.912C20.1676 25.8742 20.2652 25.8548 20.3638 25.8548C20.4623 25.8548 20.5599 25.8742 20.651 25.912C20.742 25.9497 20.8248 26.005 20.8944 26.0748ZM27.4644 13.1373C26.4788 12.1539 25.1433 11.6016 23.751 11.6016C22.3586 11.6016 21.0232 12.1539 20.0375 13.1373L19.1057 14.0701C18.9651 14.2108 18.8861 14.4016 18.8862 14.6006C18.8863 14.7995 18.9654 14.9903 19.1061 15.1309C19.2469 15.2715 19.4377 15.3504 19.6366 15.3503C19.8356 15.3502 20.0263 15.2711 20.1669 15.1304L21.0988 14.1985C21.8022 13.4951 22.7562 13.1 23.751 13.1C24.7457 13.1 25.6998 13.4951 26.4032 14.1985C27.1066 14.9019 27.5017 15.856 27.5017 16.8507C27.5017 17.8455 27.1066 18.7995 26.4032 19.5029L24.1419 21.766C23.4655 22.4419 22.5564 22.8339 21.6006 22.8618C20.6448 22.8897 19.7144 22.5514 18.9997 21.916C18.9259 21.8505 18.8398 21.8002 18.7465 21.768C18.6532 21.7357 18.5544 21.7222 18.4559 21.7281C18.2569 21.7401 18.0708 21.8306 17.9385 21.9798C17.873 22.0536 17.8227 22.1397 17.7904 22.233C17.7582 22.3263 17.7446 22.4251 17.7506 22.5236C17.7625 22.7226 17.853 22.9087 18.0022 23.041C19.0031 23.9308 20.3062 24.4044 21.6448 24.3651C22.9834 24.3257 24.2563 23.7762 25.2032 22.8292L27.4644 20.5679C28.4484 19.5822 29.0011 18.2463 29.0011 16.8535C29.0011 15.4607 28.4484 14.1249 27.4644 13.1392V13.1373Z" fill="#343330"/>
</svg>
