<svg width="40" height="41" viewBox="0 0 40 41" fill="none" xmlns="http://www.w3.org/2000/svg">
<rect x="0.5" y="1.10352" width="39" height="39" rx="19.5" stroke="#222222"/>
<path d="M19.784 27.7955C19.1547 27.7955 18.5627 27.6835 18.008 27.4595C17.4533 27.2248 16.9733 26.8995 16.568 26.4835C16.1627 26.0675 15.8747 25.5662 15.704 24.9795L17.288 24.3715C17.4907 24.9368 17.8213 25.3688 18.28 25.6675C18.7387 25.9662 19.24 26.1155 19.784 26.1155C20.232 26.1155 20.6267 26.0142 20.968 25.8115C21.3093 25.6088 21.576 25.3315 21.768 24.9795C21.9707 24.6275 22.072 24.2275 22.072 23.7795C22.072 23.3208 21.9707 22.9208 21.768 22.5795C21.576 22.2275 21.3093 21.9555 20.968 21.7635C20.6267 21.5608 20.232 21.4595 19.784 21.4595C19.336 21.4595 18.9253 21.5608 18.552 21.7635C18.1787 21.9662 17.9067 22.2382 17.736 22.5795L16.216 22.2435L17.144 15.6835H23.496V17.2835H17.88L18.6 16.4995L17.912 21.5235L17.32 21.1235C17.64 20.6755 18.0293 20.3502 18.488 20.1475C18.9467 19.9448 19.4693 19.8435 20.056 19.8435C20.8347 19.8435 21.512 20.0195 22.088 20.3715C22.6747 20.7128 23.128 21.1822 23.448 21.7795C23.7787 22.3662 23.944 23.0328 23.944 23.7795C23.944 24.5368 23.7627 25.2195 23.4 25.8275C23.0373 26.4355 22.5413 26.9155 21.912 27.2675C21.2933 27.6195 20.584 27.7955 19.784 27.7955Z" fill="#222222"/>
</svg>
