<svg width="40" height="41" viewBox="0 0 40 41" fill="none" xmlns="http://www.w3.org/2000/svg">
<rect x="0.5" y="1.10352" width="39" height="39" rx="19.5" stroke="#222222"/>
<path d="M19.688 27.7955C19.048 27.7955 18.4453 27.6782 17.88 27.4435C17.3253 27.2088 16.8453 26.8782 16.44 26.4515C16.0453 26.0248 15.7627 25.5235 15.592 24.9475L17.192 24.3395C17.4053 24.9048 17.7307 25.3422 18.168 25.6515C18.6053 25.9608 19.112 26.1155 19.688 26.1155C20.1573 26.1155 20.5627 26.0248 20.904 25.8435C21.256 25.6622 21.528 25.4062 21.72 25.0755C21.9227 24.7448 22.024 24.3448 22.024 23.8755C22.024 23.4168 21.9227 23.0222 21.72 22.6915C21.528 22.3608 21.256 22.1102 20.904 21.9395C20.5627 21.7688 20.1573 21.6835 19.688 21.6835C19.496 21.6835 19.2987 21.6995 19.096 21.7315C18.904 21.7635 18.7333 21.8062 18.584 21.8595L18.168 20.9795L21.304 17.2835H16.232V15.6835H23.416V17.2035L20.344 20.8835L20.296 20.2755C21.0107 20.2862 21.64 20.4462 22.184 20.7555C22.728 21.0542 23.1493 21.4702 23.448 22.0035C23.7573 22.5262 23.912 23.1342 23.912 23.8275C23.912 24.5742 23.7307 25.2515 23.368 25.8595C23.0053 26.4568 22.504 26.9315 21.864 27.2835C21.2347 27.6248 20.5093 27.7955 19.688 27.7955Z" fill="#222222"/>
</svg>
